<svg width="60" height="60" viewBox="0 0 60 60" fill="none" xmlns="http://www.w3.org/2000/svg">
<g clip-path="url(#clip0_18_206)">
<path d="M30 0C24.0666 0 18.2664 1.75947 13.3329 5.05591C8.39943 8.35235 4.55426 13.0377 2.28363 18.5195C0.0129986 24.0013 -0.581102 30.0333 0.576455 35.8527C1.73401 41.6721 4.59123 47.0176 8.78681 51.2132C12.9824 55.4088 18.3279 58.266 24.1473 59.4236C29.9667 60.5811 35.9987 59.987 41.4805 57.7164C46.9623 55.4458 51.6477 51.6006 54.9441 46.6671C58.2405 41.7336 60 35.9334 60 30C60 22.0435 56.8393 14.4129 51.2132 8.7868C45.5871 3.16071 37.9565 0 30 0ZM30 55C25.0555 55 20.222 53.5338 16.1108 50.7867C11.9995 48.0397 8.79522 44.1352 6.90303 39.5671C5.01083 34.9989 4.51575 29.9723 5.48038 25.1227C6.44501 20.2732 8.82603 15.8186 12.3223 12.3223C15.8187 8.82602 20.2732 6.445 25.1228 5.48037C29.9723 4.51574 34.9989 5.01082 39.5671 6.90301C44.1353 8.7952 48.0397 11.9995 50.7868 16.1107C53.5338 20.222 55 25.0555 55 30C55 36.6304 52.3661 42.9893 47.6777 47.6777C42.9893 52.3661 36.6304 55 30 55Z" fill="#AAA8A8"/>
<path d="M25 36.4625L16.7625 28.2375L13.2375 31.7625L25 43.5376L46.7625 21.7625L43.2375 18.2375L25 36.4625Z" fill="#B8AFAF"/>
</g>
<defs>
<clipPath id="clip0_18_206">
<rect width="60" height="60" fill="white"/>
</clipPath>
</defs>
</svg>
