<svg width="1280" height="569" viewBox="0 0 1280 569" fill="none" xmlns="http://www.w3.org/2000/svg">
<g filter="url(#filter0_f_81_1092)">
<path d="M953.216 -30.8195C881.367 -74.1917 848.32 -152.373 749.657 -158.464C648.571 -164.705 580.63 -99.6847 502.262 -58.6586C502.073 -58.5593 501.883 -58.4607 501.693 -58.3614L749.188 98.4541L953.216 -30.8195Z" fill="#0A7CFF"/>
<path d="M953.218 -30.8196L749.19 98.454H1175.25C1158.02 56.681 1101.12 33.8541 1042.63 10.3909C1011.34 -2.16407 979.588 -14.9006 953.218 -30.8196Z" fill="#0A7CFF"/>
<path d="M749.189 98.4535L501.694 -58.3621C477.042 -45.5 449.219 -33.7549 421.417 -22.0191C344.575 10.4174 267.908 42.7808 258.891 98.4535H749.189Z" fill="#FF469D"/>
<path d="M258.891 98.4539C246.239 176.568 350.669 241.227 445.533 291.594L749.189 98.4539H258.891Z" fill="#117CF7"/>
<path d="M1097.77 319.528C1186.74 265.057 1206.57 174.373 1175.25 98.454H749.19L1097.77 319.528Z" fill="#7B7DD7"/>
<path d="M749.189 98.4539L445.533 291.594C543.626 343.676 640.667 354.188 768.879 359.863L768.915 359.864L749.189 98.4539Z" fill="#7733FF"/>
<path d="M1097.77 319.528L749.19 98.454L768.917 359.864C886.149 365.054 1014.15 370.719 1097.77 319.528Z" fill="#7B7DD7"/>
</g>
<defs>
<filter id="filter0_f_81_1092" x="-21.9965" y="-438.723" width="1491" height="1081.68" filterUnits="userSpaceOnUse" color-interpolation-filters="sRGB">
<feFlood flood-opacity="0" result="BackgroundImageFix"/>
<feBlend mode="normal" in="SourceGraphic" in2="BackgroundImageFix" result="shape"/>
<feGaussianBlur stdDeviation="139.921" result="effect1_foregroundBlur_81_1092"/>
</filter>
</defs>
</svg>
