<svg width="32" height="32" viewBox="0 0 32 32" fill="none" xmlns="http://www.w3.org/2000/svg">
<path fill-rule="evenodd" clip-rule="evenodd" d="M31.3758 28.3641L23.2437 20.1961C24.791 18.0388 25.6199 15.4499 25.6129 12.7958C25.6129 5.7368 19.8713 0 12.8065 0C5.74156 0 0 5.7368 0 12.7958C0 19.8549 5.74156 25.5917 12.8065 25.5917C15.5812 25.5917 18.0998 24.7173 20.2128 23.2244L28.3876 31.3498C28.7932 31.7763 29.3481 31.9896 29.8817 31.9896C30.4153 31.9896 30.9916 31.7976 31.3758 31.3498C31.5737 31.1525 31.7307 30.9181 31.8378 30.6601C31.9449 30.4021 32 30.1256 32 29.8463C32 29.567 31.9449 29.2904 31.8378 29.0324C31.7307 28.7744 31.5737 28.5401 31.3758 28.3428V28.3641ZM12.8065 22.8192C7.27833 22.8192 2.77473 18.3194 2.77473 12.7958C2.77473 7.2723 7.27833 2.77243 12.8065 2.77243C18.3346 2.77243 22.8382 7.2723 22.8382 12.7958C22.8382 18.3194 18.3346 22.8192 12.8065 22.8192Z" fill="#B9B9C1"/>
</svg>
